<svg width="107" height="40" viewBox="0 0 107 40" fill="none" xmlns="http://www.w3.org/2000/svg">
<g clip-path="url(#clip0_66_366)">
<path d="M78.7501 8.83333L77.6667 12.0833C76.8334 10.0833 74.8334 8.83333 72.0834 8.83333H61.7501H52.0834L51.0001 12C50.3334 10.0833 48.5834 8.83333 46.0834 8.83333H28.9167C28.1667 8.83333 27.4167 8.75 26.9167 8.5C25.4167 7.58333 24.8334 5.75 25.0001 3.5L25.2501 0.75C23.7501 0.333333 22.2501 0.083333 20.6667 0.083333L20.1667 2.66667C19.6667 4.91667 18.5001 6.58333 16.8334 7.08333C15.0834 7.5 13.1667 6.5 11.5834 4.58333L10.0001 2.66667C8.66675 3.41667 7.33342 4.41667 6.16675 5.5L7.25008 7C8.83342 9.16667 9.33342 11.4167 8.41675 13.0833C7.41675 14.6667 5.25008 15.3333 2.66675 14.9167L0.666748 14.75C0.250081 16.3333 8.13854e-05 17.9167 -0.083252 19.5L1.66675 19.75C4.41675 20.0833 6.41675 21.3333 6.91675 23.25C7.33342 24.9167 6.41675 26.75 4.66675 28.25L2.66675 30C3.41675 31.3333 4.41675 32.5833 5.50008 33.75L7.33342 32.4167C9.41675 31 11.5001 30.5833 13.0834 31.5C14.9167 32.5833 14.9167 36.25 14.7501 38.4167L14.6667 40H33.9167C37.0834 40 40.4167 38.3333 42.8334 35.8333L41.4167 40H51.0834L56.0001 25.75H58.5001L63.4167 39.9167H73.9167L68.9167 25.3333C72.8334 24.3333 76.5001 21.0833 77.8334 17.1667C78.1668 16.3333 78.2501 15.5 78.3334 14.6667H86.2501L77.3334 40H87.0001L95.6668 14.8333H104.417L106.5 8.83333H78.7501ZM21.9167 22.8333C20.1667 25.4167 16.7501 26.25 14.2501 24.6667C11.8334 23.0833 11.2501 19.75 13.0001 17.1667C14.7501 14.5833 18.1667 13.75 20.6667 15.3333C23.1667 16.8333 23.7501 20.25 21.9167 22.8333ZM36.0834 30.1667C35.5001 31.9167 33.5001 33.4167 31.7501 33.4167H26.3334L28.5834 27H34.0001C35.7501 27 36.7501 28.4167 36.0834 30.1667ZM39.5001 17.75C38.9167 19.4167 37.1667 20.75 35.5001 20.75H30.5834L32.5834 14.8333H37.5001C39.1667 14.8333 40.0001 16.1667 39.5001 17.75ZM43.1667 23.25C45.0001 22.75 46.7501 21.75 48.1667 20.3333L46.0001 26.6667C45.5834 25.1667 44.5834 23.9167 43.1667 23.25ZM66.5834 17.75C66.0001 19.4167 64.2501 20.75 62.5834 20.75H57.6667L59.6667 14.8333H64.5834C66.2501 14.8333 67.1668 16.1667 66.5834 17.75Z" fill="white"/>
</g>
<defs>
<clipPath id="clip0_66_366">
<rect width="106.417" height="40" fill="white"/>
</clipPath>
</defs>
</svg>
