<svg width="407" height="59" viewBox="0 0 407 59" fill="none" xmlns="http://www.w3.org/2000/svg">
<path d="M261.162 27.3667C258.153 26.7926 257.343 26.3333 257.343 25.5296V25.4148C257.343 24.7259 258.037 24.2667 259.426 24.2667C262.551 24.2667 265.561 25.3 268.107 27.0222L272.853 20.5926C269.496 17.9519 265.329 16.6889 259.889 16.6889C251.787 16.6889 247.505 20.937 247.505 26.3333V26.4481C247.505 32.5333 253.176 34.3704 259.658 35.6333C262.783 36.2074 263.709 36.6667 263.709 37.4704V37.5852C263.709 38.3889 263.014 38.8481 261.278 38.8481C257.69 38.8481 254.102 37.7 251.208 35.5185L246 41.4889C249.704 44.7037 254.912 46.3111 260.815 46.3111C268.57 46.3111 273.547 42.637 273.547 36.6667V36.5519C273.547 30.8111 268.57 28.7444 261.162 27.3667Z" fill="#F65210"/>
<path d="M274.705 25.3H283.154V45.8518H292.761V25.3H301.326V17.1481H274.705V25.3Z" fill="#F65210"/>
<path d="M391.374 16L375.865 45.8519H386.166L391.374 35.4037L396.583 45.8519H407L391.374 16Z" fill="#F65210"/>
<path d="M330.84 44.3593L325.169 36.0926C328.757 34.6 330.956 31.1556 330.84 27.3667V27.2519C330.956 24.7259 330.03 22.3148 328.294 20.4778C326.211 18.5259 322.97 17.263 317.877 17.263H303.756V45.8519H313.363V37.7H315.446L320.886 45.8519H340.447L345.656 35.4037L350.864 45.8519H361.165L345.656 16L330.84 44.3593ZM321.234 28.0556C321.234 29.7778 319.845 30.8111 317.53 30.8111H313.363V25.3H317.53C319.845 25.3 321.234 26.1037 321.234 28.0556Z" fill="#F65210"/>
<path d="M373.781 17.1481L368.573 27.5963L363.249 17.1481H352.948L368.573 47L384.083 17.1481H373.781Z" fill="#F65210"/>
<path d="M163.462 2.47011L218.654 58.6474" stroke="#525252" stroke-miterlimit="10"/>
<path d="M163.462 58.6474L218.654 2.47011" stroke="#525252" stroke-miterlimit="10"/>
<g clip-path="url(#clip0_67_368)">
<path d="M102.122 11.455L100.717 15.6695C99.6366 13.076 97.043 11.455 93.4768 11.455H80.0767H67.541L66.1362 15.5615C65.2716 13.076 63.0023 11.455 59.7603 11.455H37.4987C36.5261 11.455 35.5536 11.3469 34.9052 11.0227C32.96 9.83398 32.2035 7.45654 32.4196 4.53876L32.7438 0.972589C30.7987 0.43226 28.8535 0.108063 26.8002 0.108063L26.1518 3.4581C25.5034 6.37588 23.9905 8.53719 21.8292 9.18559C19.5598 9.72592 17.0743 8.42913 15.0211 5.94362L12.9678 3.4581C11.2388 4.43069 9.5097 5.72748 7.99678 7.13234L9.40163 9.07752C11.4549 11.8872 12.1033 14.805 10.9146 16.9663C9.61777 19.0196 6.80806 19.8841 3.45802 19.3438L0.864438 19.1276C0.324109 21.1809 -8.85113e-05 23.2341 -0.108154 25.2874L2.16123 25.6116C5.7274 26.0439 8.32098 27.6648 8.96937 30.1503C9.5097 32.3117 8.32098 34.6891 6.0516 36.6343L3.45802 38.9037C4.43061 40.6327 5.7274 42.2537 7.13225 43.7666L9.5097 42.0376C12.2113 40.2005 14.913 39.6601 16.9662 40.8489C19.3437 42.2537 19.3437 47.0086 19.1276 49.8183L19.0195 51.8716H43.9827C48.0892 51.8716 52.4118 49.7103 55.5457 46.4683L53.7086 51.8716H66.2442L72.6201 33.3923H75.8621L82.238 51.7635H95.8543L89.3703 32.852C94.4494 31.5552 99.2043 27.3406 100.933 22.2615C101.366 21.1809 101.474 20.1002 101.582 19.0196H111.848L100.285 51.8716H112.821L124.059 19.2357H135.406L138.108 11.455H102.122ZM28.4212 29.61C26.1518 32.9601 21.7211 34.0407 18.4792 31.9875C15.3453 29.9342 14.5888 25.6116 16.8582 22.2615C19.1276 18.9115 23.5583 17.8309 26.8002 19.8841C30.0422 21.8293 30.7987 26.26 28.4212 29.61ZM46.7924 39.1198C46.0359 41.3892 43.4424 43.3344 41.173 43.3344H34.1487L37.0665 35.0133H44.0907C46.3601 35.0133 47.6569 36.8504 46.7924 39.1198ZM51.2231 23.018C50.4666 25.1793 48.1972 26.9084 46.0359 26.9084H39.6601L42.2536 19.2357H48.6295C50.7908 19.2357 51.8715 20.9648 51.2231 23.018ZM55.978 30.1503C58.3554 29.502 60.6248 28.2052 62.4619 26.368L59.6522 34.581C59.1119 32.6359 57.8151 31.0149 55.978 30.1503ZM86.3445 23.018C85.588 25.1793 83.3186 26.9084 81.1573 26.9084H74.7814L77.375 19.2357H83.7509C85.9122 19.2357 87.1009 20.9648 86.3445 23.018Z" fill="#F7181F"/>
</g>
<defs>
<clipPath id="clip0_67_368">
<rect width="138" height="51.8716" fill="white"/>
</clipPath>
</defs>
</svg>
