<?xml version="1.0" encoding="utf-8"?>
<!-- Generator: Adobe Illustrator 25.2.1, SVG Export Plug-In . SVG Version: 6.00 Build 0)  -->
<svg version="1.1" id="Layer_1" xmlns="http://www.w3.org/2000/svg" xmlns:xlink="http://www.w3.org/1999/xlink" x="0px" y="0px"
	 viewBox="0 0 117 40" style="enable-background:new 0 0 117 40;" xml:space="preserve">
<style type="text/css">
	.st0{fill:#2D2D2D;}
	.st1{fill:#FA0F13;}
</style>
<g>
	<polygon class="st0" points="116.6,1.8 77.4,1.8 74.9,9 89.1,9 78.7,39.2 90.3,39.2 100.6,9 114.1,9 	"/>
	<path class="st0" d="M19.4,24.4c-2.8,0-5-2.3-5-5s2.3-5,5-5s5,2.3,5,5S22.2,24.4,19.4,24.4z M19.4,15.3c-2.2,0-4,1.8-4,4s1.8,4,4,4
		s4-1.8,4-4S21.6,15.3,19.4,15.3z"/>
	<path class="st1" d="M78.1,21.7c4.7-1.2,9.1-5.1,10.7-9.8c1.9-5.6-1.1-10.2-6.7-10.2h-24L45.2,39.2h11.6l5.9-17.1h3l5.9,17h7.2
		l2.7-7.8L78.1,21.7z M75.5,12.5c-0.7,2-2.8,3.6-4.8,3.6h-5.9L67.2,9h5.9C75.1,9,76.1,10.6,75.5,12.5z"/>
	<path class="st0" d="M57.2,4.4c-1-1.6-2.9-2.7-5.4-2.7H28.6l0,0C27,1,25.3,0.4,23.5,0c0.4,0.7,0.7,1.5,0.7,2.4
		c0,2.6-2.1,4.8-4.8,4.8S14.6,5,14.6,2.4c0-0.9,0.3-1.7,0.7-2.4c-2.4,0.5-4.7,1.5-6.7,2.8C9.4,3,10.1,3.4,10.7,4
		c1.9,1.9,1.9,4.9,0,6.7s-4.9,1.9-6.7,0c-0.6-0.6-1-1.4-1.2-2.2c-1.3,2-2.3,4.3-2.8,6.7c0.7-0.4,1.5-0.7,2.4-0.7
		c2.6,0,4.8,2.1,4.8,4.8S5,24.1,2.4,24.1c-0.9,0-1.7-0.2-2.4-0.7c0.5,2.4,1.5,4.7,2.8,6.7C3,29.4,3.4,28.7,4,28
		c1.9-1.9,4.9-1.9,6.7,0s1.9,4.9,0,6.7c-0.6,0.6-1.4,1-2.1,1.2c3.1,2,6.8,3.2,10.8,3.2h17.8c5.8,0,12.1-4.7,14.1-10.5
		c1.5-4.3,0.1-8-3-9.6c1.6-0.4,3.3-1.2,4.7-2.3L57.2,4.4z M19.4,29.4c-5.5,0-10-4.5-10-10s4.5-10,10-10s10,4.5,10,10
		S24.9,29.4,19.4,29.4z M39.8,27.4c-0.7,2.1-3.1,3.9-5.2,3.9h-6.5l2.7-7.7h6.5C39.4,23.6,40.6,25.3,39.8,27.4z M43.9,12.5
		c-0.7,2-2.8,3.6-4.8,3.6h-5.9L35.6,9h5.9C43.5,9,44.6,10.6,43.9,12.5z"/>
</g>
</svg>
