<svg width="117" height="40" viewBox="0 0 117 40" fill="none" xmlns="http://www.w3.org/2000/svg">
<g clip-path="url(#clip0_2_26)">
<path d="M58.1 1.8L57.2 4.5C56.2 2.9 54.3 1.8 51.8 1.8H28.6C27 1 25.3 0.4 23.5 0C23.9 0.7 24.2 1.5 24.2 2.4C24.2 5 22.1 7.2 19.4 7.2C16.7 7.2 14.6 5 14.6 2.4C14.6 1.5 14.9 0.7 15.3 0C12.9 0.5 10.6 1.5 8.6 2.8C9.4 3 10.1 3.4 10.7 4C12.6 5.9 12.6 8.9 10.7 10.7C8.8 12.5 5.8 12.6 4 10.7C3.4 10.1 3 9.3 2.8 8.5C1.5 10.5 0.5 12.8 0 15.2C0.7 14.8 1.5 14.5 2.4 14.5C5 14.5 7.2 16.6 7.2 19.3C7.2 22 5 24.1 2.4 24.1C1.5 24.1 0.7 23.9 0 23.4C0.5 25.8 1.5 28.1 2.8 30.1C3 29.4 3.4 28.7 4 28C5.9 26.1 8.9 26.1 10.7 28C12.5 29.9 12.6 32.9 10.7 34.7C10.1 35.3 9.3 35.7 8.6 35.9C11.7 37.9 15.4 39.1 19.4 39.1H37.2C40.4 39.1 43.8 37.6 46.5 35.4L45.2 39.1H56.8L62.7 22H65.7L71.6 39H90.3L100.6 9H114.1L116.6 1.8H58.1ZM19.4 28.9C14.1 28.9 9.9 24.6 9.9 19.4C9.9 14.1 14.2 9.9 19.4 9.9C24.6 9.9 28.9 14.2 28.9 19.4C28.9 24.6 24.7 28.9 19.4 28.9ZM39.8 27.4C39.1 29.5 36.7 31.3 34.6 31.3H28.1L30.8 23.6H37.3C39.4 23.6 40.6 25.3 39.8 27.4ZM43.9 12.5C43.2 14.5 41.1 16.1 39.1 16.1H33.2L35.6 9H41.5C43.5 9 44.6 10.6 43.9 12.5ZM51.2 22C50.6 20.8 49.6 19.8 48.3 19.1C49.9 18.7 51.6 17.9 53 16.8L51.2 22ZM75.5 12.5C74.8 14.5 72.7 16.1 70.7 16.1H64.8L67.2 9H73.1C75.1 9 76.1 10.6 75.5 12.5ZM81.4 31.4L78.1 21.7C81.5 20.8 84.7 18.5 86.9 15.5L81.4 31.4Z" fill="white"/>
<path d="M19.4 14.8C16.9 14.8 14.8 16.9 14.8 19.4C14.8 21.9 16.9 24 19.4 24C21.9 24 24 21.9 24 19.4C24 16.9 21.9 14.8 19.4 14.8Z" fill="white"/>
</g>
<defs>
<clipPath id="clip0_2_26">
<rect width="116.6" height="39.2" fill="white"/>
</clipPath>
</defs>
</svg>
